<svg width="53" height="53" viewBox="0 0 53 53" fill="none" xmlns="http://www.w3.org/2000/svg">
<circle cx="26.5" cy="26.5" r="25.75" stroke="url(#paint0_linear_263_646)" stroke-width="1.5"/>
<path d="M34.2941 30.8284C34.2941 31.997 33.9956 32.9884 33.3984 33.8029C32.8193 34.6173 32.0231 35.237 31.0097 35.6619C30.0145 36.0691 28.9016 36.2905 27.6711 36.3259V38.902H26.341V36.2727C24.4772 36.1134 22.9662 35.5114 21.808 34.4668C20.668 33.4222 19.9804 31.997 19.7451 30.191L22.8938 29.8723C23.129 32.0855 24.2781 33.378 26.341 33.7498V27.668L25.0381 27.3228C24.0972 27.0749 23.2919 26.7828 22.6223 26.4464C21.9709 26.11 21.428 25.6054 20.9937 24.9326C20.5594 24.2598 20.3423 23.3834 20.3423 22.3034C20.3423 21.2765 20.5956 20.3735 21.1023 19.5945C21.6271 18.8155 22.3419 18.2046 23.2467 17.762C24.1695 17.3194 25.201 17.0715 26.341 17.0184V15H27.6711V17.0184C30.9826 17.284 33.0365 19.1253 33.8327 22.5424L30.684 22.7814C30.3402 20.9224 29.3359 19.8424 27.6711 19.5414V24.9857L28.9468 25.3044C30.105 25.6054 31.0459 25.9241 31.7698 26.2605C32.4936 26.5969 33.0908 27.128 33.5613 27.8539C34.0498 28.5799 34.2941 29.5713 34.2941 30.8284ZM26.341 19.4883C25.4905 19.5591 24.8119 19.8424 24.3053 20.3381C23.8167 20.8338 23.5724 21.4535 23.5724 22.1971C23.5724 22.8876 23.7895 23.4099 24.2238 23.7641C24.6581 24.1005 25.2915 24.3749 26.1239 24.5873L26.341 24.6405V19.4883ZM27.6711 33.8294C28.6844 33.794 29.4897 33.5196 30.0869 33.0061C30.7021 32.4927 31.0097 31.8022 31.0097 30.9346C31.0097 30.1025 30.7655 29.5005 30.2769 29.1287C29.8064 28.7392 29.0554 28.4028 28.0239 28.1195L27.6711 28.0133V33.8294Z" fill="url(#paint1_linear_263_646)"/>
<defs>
<linearGradient id="paint0_linear_263_646" x1="2.41822e-07" y1="22.9805" x2="52.793" y2="33.125" gradientUnits="userSpaceOnUse">
<stop stop-color="#3F3BB1"/>
<stop offset="1" stop-color="#138EA0"/>
</linearGradient>
<linearGradient id="paint1_linear_263_646" x1="19.7451" y1="25.3637" x2="34.5696" y2="27.0977" gradientUnits="userSpaceOnUse">
<stop stop-color="#3F3BB1"/>
<stop offset="1" stop-color="#138EA0"/>
</linearGradient>
</defs>
</svg>
