<svg xmlns="http://www.w3.org/2000/svg" viewBox="0 0 116 126" width="35" height="100%"><defs><style>
      .a-invite {
        fill: #3ce8a7;
      }

      .b-invite {
        fill: #22d28e;
      }

      .c-invite {
        fill: #11bd79;
      }

      .d-invite {
        fill: #c9e0eb;
      }

      .e-invite {
        fill: #e9f2f7;
      }

      .f-invite {
        fill: #9bc0da;
      }

      .g-invite {
        fill: #fdbd53;
      }
    </style></defs><path class="a-invite" d="M113,126H2.05v-1c1.41-1.1,2.77-2.26,4.24-3.27,5-3.43,10.12-6.71,15.06-10.24,4.51-3.23,8.77-6.84,13.29-10.06,4.78-3.42,9.74-6.58,14.63-9.85C55,96.82,60.78,97,66.64,91.83c4.7,3.32,9.37,6.66,14.1,9.94Q91.86,109.5,103,117.15c2.7,1.86,5.53,3.56,8.1,5.57C112,123.44,112.39,124.89,113,126Z" transform="translate(0)"/><path class="b-invite" d="M116,122.5c0,1.17.25,3.5-1,3.5h-2c-.61-1.11-1-2.56-1.88-3.28-2.57-2-5.4-3.71-8.1-5.57q-11.16-7.66-22.28-15.38c-4.73-3.28-9.4-6.62-14.1-9.94a51.64,51.64,0,0,1,4-3.59q13.74-10,27.54-20L104,63l10.17-6.11.91-.9a1.52,1.52,0,0,1,.92,0Q116,89.26,116,122.5ZM35.53,81.1c-5.84-4.34-11.74-8.59-17.61-12.88L12.11,63,1.93,56.9,1,56l-1,0v65.05a19.24,19.24,0,0,0,.1,4c.09.45.08,1,1.9,1v-1c1.41-1.1,2.77-2.26,4.24-3.27,5-3.43,10.12-6.71,15.06-10.24,4.51-3.23,8.77-6.84,13.29-10.06,4.78-3.42,9.74-6.58,14.63-9.85C44.69,88.09,40.15,84.54,35.53,81.1Z" transform="translate(0)"/><path class="c-invite" d="M115.08,56l-.91.9L104,63l0-15.19Zm-103-8.21S4.69,53.24,1,56l.9.92L12.11,63Z" transform="translate(0)"/><path class="d-invite" d="M104,63l-5.85,5.26S98,31.4,98,15.1A8.88,8.88,0,0,0,88.7,6Q58.52,6,28.35,6C22.06,6,18.13,9.78,18.1,16.11c-.06,16.3-.18,52.11-.18,52.11L12.11,63V0H104Z" transform="translate(0)"/><path class="e-invite" d="M98.15,68.25S68,90.63,66.64,91.83c-5.86,5.18-11.65,5-17.37-.24-4.58-3.5-9.12-7-13.74-10.49-5.84-4.34-17.61-12.88-17.61-12.88s.12-35.81.18-52.11c0-6.33,4-10.1,10.25-10.11Q58.53,6,88.7,6A8.88,8.88,0,0,1,98,15.1C98,31.4,98.15,68.25,98.15,68.25Z" transform="translate(0)"/><path class="f-invite" d="M58.44,67c-6.32,0-12.64.12-18.94-.1-1.27-.05-3.75-.61-3.75-2.13s2.45-1.69,3.68-1.71q18.7-.18,37.39,0c1.17,0,3.49.25,3.49,1.89S78,66.86,76.88,66.9C70.74,67.1,64.58,67,58.44,67Zm6.75,8c.89-.09,2.5-.58,2.5-1.76a2.11,2.11,0,0,0-1.91-1.9q-7.71-.24-15.42,0c-.68,0-2,.66-2,1.83s1.54,1.74,2.4,1.83A138.65,138.65,0,0,0,65.19,75ZM76.83,58.71c1.15,0,3.38-.29,3.38-1.94s-2.28-1.87-3.43-1.88q-18.36-.21-36.72,0c-1.21,0-3.62.19-3.62,1.7s2.43,2.08,3.68,2.13c6.19.22,12.4.1,18.6.1C64.76,58.81,70.8,58.91,76.83,58.71Z" transform="translate(0)"/><path class="g-invite" d="M83.1,25.54c0,7.73.12,14.32-.17,20.88,0,.79-2.32,2.08-3.6,2.12-7.14.21-14.29.1-21.44.1-6.32,0-12.64-.08-19,0-2.9,0-4.22-.83-4.12-4,.19-5.95.06-11.9.06-19,2.72,1.66,4.6,2.75,6.42,3.94,2.27,1.47,4.08,1.57,5.91-.9,2.46-3.33,5.28-6.41,7.92-9.61,3.88-4.71,3.88-4.72,7.93.11,2.56,3.05,5.24,6,7.59,9.24,2.07,2.84,4.11,2.8,6.68.85C78.84,28.12,80.52,27.19,83.1,25.54Z" transform="translate(0)"/></svg>