<svg width="53" height="53" viewBox="0 0 53 53" fill="none" xmlns="http://www.w3.org/2000/svg">
<circle cx="26.5" cy="26.5" r="25.75" stroke="url(#paint0_linear_263_645)" stroke-width="1.5"/>
<path d="M19.2841 17C20.731 17 21.8773 17.4942 22.7228 18.4826C23.5872 19.4519 24.0194 20.8775 24.0194 22.7592C24.0194 24.6409 23.5872 26.0759 22.7228 27.0643C21.8773 28.0336 20.731 28.5183 19.2841 28.5183C17.7996 28.5183 16.6346 28.0336 15.789 27.0643C14.9622 26.0949 14.5488 24.6599 14.5488 22.7592C14.5488 20.8584 14.9622 19.4234 15.789 18.454C16.6346 17.4847 17.7996 17 19.2841 17ZM22.0182 37.3852H19.7915L31.0096 17.3991H33.2363L22.0182 37.3852ZM19.2841 26.5226C19.9982 26.5226 20.5243 26.228 20.8626 25.6387C21.2196 25.0305 21.3981 24.0707 21.3981 22.7592C21.3981 21.4287 21.2196 20.4783 20.8626 19.9081C20.5243 19.3189 19.9982 19.0243 19.2841 19.0243C18.5513 19.0243 18.0157 19.3189 17.6775 19.9081C17.3393 20.4783 17.1702 21.4287 17.1702 22.7592C17.1702 24.0897 17.3393 25.0495 17.6775 25.6387C18.0157 26.228 18.5513 26.5226 19.2841 26.5226ZM33.7437 26.266C35.2094 26.266 36.3556 26.7507 37.1824 27.72C38.028 28.6894 38.4508 30.1244 38.4508 32.0251C38.4508 33.9259 38.028 35.3609 37.1824 36.3303C36.3556 37.2996 35.2094 37.7843 33.7437 37.7843C32.278 37.7843 31.1224 37.2996 30.2768 36.3303C29.45 35.3609 29.0366 33.9259 29.0366 32.0251C29.0366 30.1244 29.45 28.6894 30.2768 27.72C31.1224 26.7507 32.278 26.266 33.7437 26.266ZM33.7437 35.7601C34.4765 35.7601 35.0027 35.4749 35.3221 34.9047C35.6603 34.3155 35.8295 33.3556 35.8295 32.0251C35.8295 30.6946 35.6603 29.7443 35.3221 29.1741C35.0027 28.5849 34.4765 28.2902 33.7437 28.2902C33.0108 28.2902 32.4753 28.5849 32.1371 29.1741C31.7988 29.7443 31.6297 30.6946 31.6297 32.0251C31.6297 33.3556 31.7988 34.3155 32.1371 34.9047C32.4753 35.4749 33.0108 35.7601 33.7437 35.7601Z" fill="url(#paint1_linear_263_645)"/>
<defs>
<linearGradient id="paint0_linear_263_645" x1="2.41822e-07" y1="22.9805" x2="52.793" y2="33.125" gradientUnits="userSpaceOnUse">
<stop stop-color="#3F3BB1"/>
<stop offset="1" stop-color="#138EA0"/>
</linearGradient>
<linearGradient id="paint1_linear_263_645" x1="14.5488" y1="26.0119" x2="38.0871" y2="31.2134" gradientUnits="userSpaceOnUse">
<stop stop-color="#3F3BB1"/>
<stop offset="1" stop-color="#138EA0"/>
</linearGradient>
</defs>
</svg>
