<svg width="53" height="53" viewBox="0 0 53 53" fill="none" xmlns="http://www.w3.org/2000/svg">
<path fill-rule="evenodd" clip-rule="evenodd" d="M24.4793 21.284C26.7113 21.284 28.5207 19.4677 28.5207 17.2271C28.5207 14.9864 26.7113 13.1701 24.4793 13.1701C22.2472 13.1701 20.4379 14.9864 20.4379 17.2271C20.4379 19.4677 22.2472 21.284 24.4793 21.284ZM24.4793 23.0227C27.6678 23.0227 30.2527 20.4279 30.2527 17.2271C30.2527 14.0263 27.6678 11.4314 24.4793 11.4314C21.2908 11.4314 18.7058 14.0263 18.7058 17.2271C18.7058 20.4279 21.2908 23.0227 24.4793 23.0227ZM29.6753 29.398V39.3003L32.0659 37.6317C33.0576 36.9393 34.3758 36.9393 35.3675 37.6317L37.7581 39.3003V29.398H29.6753ZM32.2252 27.6593H38.3355C38.9731 27.6593 39.4902 28.1747 39.4902 28.8106V40.4152C39.4902 41.3469 38.4385 41.8926 37.6733 41.3586L34.3789 39.0592C33.9814 38.7815 33.452 38.7815 33.0546 39.0592L29.7601 41.3586C28.9949 41.8926 27.9433 41.3469 27.9433 40.4152V37.5117H15.8191C14.5438 37.5117 13.5098 36.4736 13.5098 35.1934V34.6139C13.5098 28.8524 18.1625 24.1817 23.9019 24.1817H24.4793C27.557 24.1817 30.3223 25.5247 32.2249 27.6591L32.2252 27.6593ZM29.6761 27.6593H29.098C28.4604 27.6593 27.9433 28.1747 27.9433 28.8106V35.7734H15.8192C15.5003 35.7734 15.2418 35.5139 15.2418 35.1938V34.6143C15.2418 29.8129 19.119 25.9208 23.9019 25.9208H24.4793C26.4294 25.9208 28.2286 26.5678 29.6762 27.6595L29.6761 27.6593Z" fill="url(#paint0_linear_241_644)"/>
<circle cx="26.5" cy="26.5" r="25.75" stroke="url(#paint1_linear_241_644)" stroke-width="1.5"/>
<defs>
<linearGradient id="paint0_linear_241_644" x1="13.5098" y1="24.4987" x2="39.6275" y2="28.8252" gradientUnits="userSpaceOnUse">
<stop stop-color="#3F3BB1"/>
<stop offset="1" stop-color="#138EA0"/>
</linearGradient>
<linearGradient id="paint1_linear_241_644" x1="2.41822e-07" y1="22.9805" x2="52.793" y2="33.125" gradientUnits="userSpaceOnUse">
<stop stop-color="#3F3BB1"/>
<stop offset="1" stop-color="#138EA0"/>
</linearGradient>
</defs>
</svg>
