<svg xmlns="http://www.w3.org/2000/svg" xmlns:xlink="http://www.w3.org/1999/xlink" viewBox="0 0 37 21" width="55" height="30"><defs><linearGradient id="f" x1="11.46174" y1="18.42892" x2="1.00747" y2="12.87029" gradientUnits="userSpaceOnUse"><stop offset="0" stop-color="#09331f"/><stop offset="1" stop-color="#25cb8a"/></linearGradient><linearGradient id="b" x1="12.97281" y1="14.2431" x2="7.83221" y2="3.70332" gradientUnits="userSpaceOnUse"><stop offset="0" stop-color="#28331b"/><stop offset="1" stop-color="#b9ec7d"/></linearGradient><linearGradient id="c" x1="18.56716" y1="11.87489" x2="18.56716" y2="0.62812" gradientUnits="userSpaceOnUse"><stop offset="0" stop-color="#333015"/><stop offset="1" stop-color="#e6d860"/></linearGradient><linearGradient id="i" x1="22.4694" y1="13.0527" x2="29.24613" y2="4.05968" gradientUnits="userSpaceOnUse"><stop offset="0" stop-color="#4d341b"/><stop offset="1" stop-color="#e57b2d"/></linearGradient><linearGradient id="e" x1="24.51407" y1="13.5036" x2="36.61995" y2="13.5036" gradientUnits="userSpaceOnUse"><stop offset="0" stop-color="#330817"/><stop offset="1" stop-color="#c01d56"/></linearGradient></defs><g><g><path fill-opacity="0.5" d="M.389,17.90833c.02276-.50632.07784-1.01159.13121-1.516A20.74026,20.74026,0,0,1,1.737,11.57842,23.20769,23.20769,0,0,1,3.4952,8.5175c.20869-.33889.50122.02026.8703.2797.22438.19485,5.56567,3.95657,7.96471,5.64422a.347.347,0,0,1,.1498.442l-.00584.00607a1.4676,1.4676,0,0,1-.08355.12558,7.022,7.022,0,0,0-1.01215,3.51838c.02368.09079-.08551.14329-.17209.14329-.15606,0-.21674-.008-.35762-.008-.95543-.00822-1.91089-.01985-2.86639-.02409-2.11887-.0094-6.73807.00354-6.92881.01643C.3709,18.59945.358,18.59889.389,17.90833Z" fill="url(#f)"/><g fill-opacity="0.5"><path d="M12.53959,14.15475C10.44126,12.62135,8.3267,11.11,6.238,9.56365c-.54836-.406-1.123-.76967-1.67484-1.16794-.16679-.20635-.45562-.27568-.58653-.52234a17.33541,17.33541,0,0,1,4.1599-4.05853,27.299,27.299,0,0,1,2.89129-1.67015l1.19764-.446c.39192-.165.58408.00934.67638.38391.09838.39925.234.71766.39146,1.16751.86112,2.66666,1.71184,5.33675,2.59324,7.99669.15361.46358.22886.80944-.35448.9591a5.63961,5.63961,0,0,0-2.5231,2.01742C12.83321,14.3288,12.70144,14.273,12.53959,14.15475Z" fill="url(#b)"/></g><g fill-opacity="0.5"><path d="M13.4649,1.32253A19.68013,19.68013,0,0,1,17.73649.64825a16.757,16.757,0,0,1,5.95834.725c.1335.06666.211.06506.20125.24492a8.14989,8.14989,0,0,1-.3415,1.14828c-.0992.27559-1.78625,5.38022-2.67862,8.07056a2.3721,2.3721,0,0,1-.43308,1.03793,6.31588,6.31588,0,0,0-3.04047-.23227c-.32747.04332-.63942.22211-.98421.12666-.24593-1.0676-.64578-2.08734-.97807-3.12792-.56417-1.76657-1.14364-3.52824-1.71992-5.29091-.03871-.11847-.36284-1.18695-.43983-1.45964S13.2104,1.39392,13.4649,1.32253Z" fill="url(#c)"/></g><path d="M21.24847,12.10482A6.02611,6.02611,0,0,1,23.46265,13.541c.34651.16985.47707.74605.82817.70115.34983-.04473.66079-.41269.98359-.64609,1.95987-1.41712,3.91607-2.83923,5.88164-4.24834.139-.09971,1.4092-1.08042,1.73325-1.28886.10212-.06568.20857-.18135.15828-.25757,0,.0001-.05418-.07293-.07688-.10276a21.2345,21.2345,0,0,0-3.63945-3.57463,18.82842,18.82842,0,0,0-4.641-2.48c-.40862-.12693-.45339.18789-.55862.569-.09621.3542-2.21469,6.747-3.08757,9.3723C20.95833,11.84308,20.99456,12.00433,21.24847,12.10482Z" fill="url(#i)"/><g fill-opacity="0.5"><path d="M24.74853,14.39351q3.242-2.308,6.45985-4.64984c.19055-.13812,1.57875-1.11789,1.70947-1.21931.13708-.10635.41832-.33859.59336-.06012s.48.76.73263,1.1845a21.005,21.005,0,0,1,2.1003,5.4641c.15608,1.01609.23925,1.43713.24708,1.78218S36.781,18.675,36.12041,18.675c-.45308-.017-3.38823-.03169-4.53679-.03479-1.74037-.00466-3.48121-.02381-5.22086.01194-.48868.01-.74381-.0942-.73436-.60657a6.00059,6.00059,0,0,0-1.0296-3.08495C24.446,14.71743,24.50228,14.5688,24.74853,14.39351Z" fill="url(#e)"/></g></g><path d="M25.35933,9.17125c-.393-.2815-.57182.13454-.76531.37125-.93149,1.13939-2.94467,3.71426-2.99986,3.78432q-1.381,1.75307-2.76368,3.50478a.86718.86718,0,0,1-.64517.32669,1.6408,1.6408,0,0,0,.1531,3.1774,1.64383,1.64383,0,0,0,1.98547-2.03354c-.03093-.14044-.09548-.26727.00321-.42193.854-1.33852,3.76748-5.97227,3.87816-6.14772q.53679-.851,1.06512-1.70729C25.438,9.75374,25.74316,9.44615,25.35933,9.17125Z" fill="#fff"/></g></svg>